# xmcd
#
# Track frame offsets: 
#        182
#        13812
#        23285
#        31420
#        45127
#        53375
#        66022
#        79592
#        94555
#        105555
#        117840
#        128662
#        141865
#        153512
#        164875
#        176390
#        186192
#        199917
#        210100
#        219260
#        231890
#        245360
#        254352
#        269022
#        277917
#
# Disc length: 3890 seconds
#
# Revision: 2
# Processed by: cddbd v1.5.2PL0 Copyright (c) Steve Scherf et al.
# Submitted via: ExactAudioCopy v0.99pb5
#
DISCID=450f3019
DTITLE=Willie Nelson - Collection
DYEAR=1993
DGENRE=Country Musik
TTITLE0=You'll Always Have Someone
TTITLE1=I'm Buixding Heart Aches
TTITLE2=Things To Remeber
TTITLE3=Home Is Were You're Happy
TTITLE4=Wou Wouldn't Cross The Street To Say Goodbye
TTITLE5=Any Old Arms Won't Do
TTITLE6=Everything But You
TTITLE7=Face Of A Fighter
TTITLE8=Go Away
TTITLE9=I Can't Find The Time
TTITLE10=I Feel Sorry For Him
TTITLE11=I Just Don't Understand
TTITLE12=I'll Stay Around
TTITLE13=I'm Going To Lose A Lot Of Teardrops
TTITLE14=Is There Something On Your Mind
TTITLE15=Let's Pretend
TTITLE16=No Tomorrow In Sight
TTITLE17=Pride Wins Again
TTITLE18=Right From Wrong
TTITLE19=She's Not For You
TTITLE20=The Last Letter
TTITLE21=Waiting Time
TTITLE22=What Can You Do To Me Now
TTITLE23=Why Are You Picking On Me?
TTITLE24=Will You Rember Mine
EXTD=
EXTT0=
EXTT1=
EXTT2=
EXTT3=
EXTT4=
EXTT5=
EXTT6=
EXTT7=
EXTT8=
EXTT9=
EXTT10=
EXTT11=
EXTT12=
EXTT13=
EXTT14=
EXTT15=
EXTT16=
EXTT17=
EXTT18=
EXTT19=
EXTT20=
EXTT21=
EXTT22=
EXTT23=
EXTT24=
PLAYORDER=
